<?xml version="1.0" standalone="no"?>
<svg viewBox="0 0 200 200" xmlns="http://www.w3.org/2000/svg">
	<path fill="#8A3FFC" d="M43.7,-75.6C57.2,-67.8,69.2,-57.3,77.8,-44.3C86.4,-31.3,91.6,-15.6,92.3,0.4C93.1,16.5,89.3,33,77.3,40C65.2,47,44.8,44.6,30.5,46.1C16.2,47.6,8.1,53.1,-0.1,53.2C-8.3,53.4,-16.5,48.2,-27.5,44.8C-38.5,41.3,-52.1,39.7,-64.6,32.5C-77,25.3,-88.3,12.7,-83.9,2.5C-79.5,-7.6,-59.5,-15.2,-47.8,-23.6C-36,-32,-32.6,-41.3,-26,-53.1C-19.5,-64.9,-9.7,-79.2,2.7,-83.9C15.1,-88.5,30.1,-83.4,43.7,-75.6Z" transform="translate(100 100)" />
</svg>
