<?xml version="1.0" standalone="no"?>
    <svg xmlns="http://www.w3.org/2000/svg" viewBox="0 0 1440 320">
        <path fill="#01004C" fill-opacity="1" d="M0,32L30,53.3C60,75,120,117,180,128C240,139,300,117,360,90.7C420,64,480,32,540,32C600,32,660,64,720,85.3C780,107,840,117,900,106.7C960,96,1020,64,1080,48C1140,32,1200,32,1260,53.3C1320,75,1380,117,1410,138.7L1440,160L1440,0L1410,0C1380,0,1320,0,1260,0C1200,0,1140,0,1080,0C1020,0,960,0,900,0C840,0,780,0,720,0C660,0,600,0,540,0C480,0,420,0,360,0C300,0,240,0,180,0C120,0,60,0,30,0L0,0Z">
        </path>
    </svg>