<svg xmlns="http://www.w3.org/2000/svg" version="1.1" xmlns:xlink="http://www.w3.org/1999/xlink" xmlns:svgjs="http://svgjs.com/svgjs" width="1440" height="560" preserveAspectRatio="none" viewBox="0 0 1440 560"><g mask="url(&quot;#SvgjsMask2535&quot;)" fill="none"><rect width="1440" height="560" x="0" y="0" fill="url(#SvgjsLinearGradient2536)"></rect><path d="M 0,5 C 48,40.4 144,165.4 240,182 C 336,198.6 384,97.4 480,88 C 576,78.6 624,144.6 720,135 C 816,125.4 864,37 960,40 C 1056,43 1104,149 1200,150 C 1296,151 1392,66 1440,45L1440 560L0 560z" fill="rgba(28, 20, 64, 0.19)"></path><path d="M 0,236 C 144,248.8 432,292 720,300 C 1008,308 1296,280.8 1440,276L1440 560L0 560z" fill="rgba(29, 18, 157, 0.46)"></path><path d="M 0,480 C 41.2,465 123.6,390.2 206,405 C 288.4,419.8 329.6,546.4 412,554 C 494.4,561.6 535.6,453.2 618,443 C 700.4,432.8 741.6,509.8 824,503 C 906.4,496.2 947.6,398 1030,409 C 1112.4,420 1154,555.2 1236,558 C 1318,560.8 1399.2,450 1440,423L1440 560L0 560z" fill="rgba(21, 10, 84, 0.88)"></path></g><defs><mask id="SvgjsMask2535"><rect width="1440" height="560" fill="#ffffff"></rect></mask><linearGradient x1="0%" y1="50%" x2="100%" y2="50%" gradientUnits="userSpaceOnUse" id="SvgjsLinearGradient2536"><stop stop-color="rgba(19, 48, 77, 1)" offset="0"></stop><stop stop-color="rgba(75, 25, 135, 1)" offset="1"></stop></linearGradient></defs></svg>