<svg xmlns="http://www.w3.org/2000/svg" version="1.1" xmlns:xlink="http://www.w3.org/1999/xlink" xmlns:svgjs="http://svgjs.com/svgjs" width="1440" height="560" preserveAspectRatio="none" viewBox="0 0 1440 560"><g mask="url(&quot;#SvgjsMask1015&quot;)" fill="none"><rect width="1440" height="560" x="0" y="0" fill="#0e2a47"></rect><path d="M892 531L891 344" stroke-width="6" stroke="url(#SvgjsLinearGradient1016)" stroke-linecap="round" class="Down"></path><path d="M26 28L25 -148" stroke-width="10" stroke="url(#SvgjsLinearGradient1017)" stroke-linecap="round" class="Up"></path><path d="M317 247L316 454" stroke-width="6" stroke="url(#SvgjsLinearGradient1016)" stroke-linecap="round" class="Down"></path><path d="M889 161L888 -138" stroke-width="6" stroke="url(#SvgjsLinearGradient1016)" stroke-linecap="round" class="Down"></path><path d="M762 227L761 34" stroke-width="10" stroke="url(#SvgjsLinearGradient1017)" stroke-linecap="round" class="Up"></path><path d="M1215 245L1214 12" stroke-width="6" stroke="url(#SvgjsLinearGradient1016)" stroke-linecap="round" class="Down"></path><path d="M942 486L941 73" stroke-width="6" stroke="url(#SvgjsLinearGradient1017)" stroke-linecap="round" class="Up"></path><path d="M36 453L35 823" stroke-width="6" stroke="url(#SvgjsLinearGradient1017)" stroke-linecap="round" class="Up"></path><path d="M688 25L687 -229" stroke-width="10" stroke="url(#SvgjsLinearGradient1017)" stroke-linecap="round" class="Up"></path><path d="M337 507L336 301" stroke-width="10" stroke="url(#SvgjsLinearGradient1017)" stroke-linecap="round" class="Up"></path><path d="M504 76L503 -95" stroke-width="6" stroke="url(#SvgjsLinearGradient1017)" stroke-linecap="round" class="Up"></path><path d="M91 199L90 -137" stroke-width="10" stroke="url(#SvgjsLinearGradient1017)" stroke-linecap="round" class="Up"></path><path d="M59 238L58 502" stroke-width="10" stroke="url(#SvgjsLinearGradient1017)" stroke-linecap="round" class="Up"></path><path d="M228 441L227 743" stroke-width="10" stroke="url(#SvgjsLinearGradient1016)" stroke-linecap="round" class="Down"></path><path d="M732 497L731 329" stroke-width="6" stroke="url(#SvgjsLinearGradient1017)" stroke-linecap="round" class="Up"></path><path d="M1082 268L1081 564" stroke-width="8" stroke="url(#SvgjsLinearGradient1016)" stroke-linecap="round" class="Down"></path><path d="M1241 549L1240 132" stroke-width="6" stroke="url(#SvgjsLinearGradient1017)" stroke-linecap="round" class="Up"></path><path d="M535 525L534 666" stroke-width="10" stroke="url(#SvgjsLinearGradient1017)" stroke-linecap="round" class="Up"></path><path d="M425 143L424 549" stroke-width="10" stroke="url(#SvgjsLinearGradient1016)" stroke-linecap="round" class="Down"></path><path d="M357 86L356 -271" stroke-width="8" stroke="url(#SvgjsLinearGradient1017)" stroke-linecap="round" class="Up"></path><path d="M170 86L169 -89" stroke-width="6" stroke="url(#SvgjsLinearGradient1016)" stroke-linecap="round" class="Down"></path><path d="M1378 453L1377 676" stroke-width="10" stroke="url(#SvgjsLinearGradient1016)" stroke-linecap="round" class="Down"></path><path d="M728 448L727 844" stroke-width="6" stroke="url(#SvgjsLinearGradient1016)" stroke-linecap="round" class="Down"></path><path d="M897 180L896 351" stroke-width="8" stroke="url(#SvgjsLinearGradient1016)" stroke-linecap="round" class="Down"></path><path d="M332 371L331 715" stroke-width="10" stroke="url(#SvgjsLinearGradient1016)" stroke-linecap="round" class="Down"></path><path d="M404 348L403 679" stroke-width="8" stroke="url(#SvgjsLinearGradient1017)" stroke-linecap="round" class="Up"></path><path d="M1212 41L1211 304" stroke-width="10" stroke="url(#SvgjsLinearGradient1017)" stroke-linecap="round" class="Up"></path><path d="M1089 403L1088 592" stroke-width="6" stroke="url(#SvgjsLinearGradient1017)" stroke-linecap="round" class="Up"></path><path d="M603 398L602 660" stroke-width="8" stroke="url(#SvgjsLinearGradient1016)" stroke-linecap="round" class="Down"></path><path d="M409 108L408 -127" stroke-width="6" stroke="url(#SvgjsLinearGradient1017)" stroke-linecap="round" class="Up"></path><path d="M1414 89L1413 -321" stroke-width="10" stroke="url(#SvgjsLinearGradient1016)" stroke-linecap="round" class="Down"></path><path d="M1173 329L1172 -52" stroke-width="8" stroke="url(#SvgjsLinearGradient1016)" stroke-linecap="round" class="Down"></path><path d="M1032 315L1031 -86" stroke-width="6" stroke="url(#SvgjsLinearGradient1016)" stroke-linecap="round" class="Down"></path><path d="M89 267L88 64" stroke-width="8" stroke="url(#SvgjsLinearGradient1017)" stroke-linecap="round" class="Up"></path><path d="M1361 316L1360 694" stroke-width="6" stroke="url(#SvgjsLinearGradient1017)" stroke-linecap="round" class="Up"></path><path d="M370 159L369 -246" stroke-width="8" stroke="url(#SvgjsLinearGradient1017)" stroke-linecap="round" class="Up"></path></g><defs><mask id="SvgjsMask1015"><rect width="1440" height="560" fill="#ffffff"></rect></mask><linearGradient x1="0%" y1="0%" x2="0%" y2="100%" id="SvgjsLinearGradient1016"><stop stop-color="rgba(44, 16, 167, 0)" offset="0"></stop><stop stop-color="rgba(44, 16, 167, 1)" offset="1"></stop></linearGradient><linearGradient x1="0%" y1="100%" x2="0%" y2="0%" id="SvgjsLinearGradient1017"><stop stop-color="rgba(44, 16, 167, 0)" offset="0"></stop><stop stop-color="rgba(44, 16, 167, 1)" offset="1"></stop></linearGradient></defs></svg>